# xmcd
#
# Track frame offsets:
#	150
#	22230
#	37497
#	70277
#	91420
#	113327
#	130312
#	143807
#	164580
#	181337
#	212457
#	228702
#	256380
#	277610
#
# Disc length: 3980 seconds
#
# Revision: 2
# Processed by: cddbd v1.4PL0 Copyright (c) Steve Scherf et al.
# Submitted via: audiograbber 1.81.03
#
DISCID=cc0f8a0e
DTITLE=Various Artist - Rounder Europe - Blues Review - CD 1
DYEAR=1997
DGENRE=Blues
TTITLE0=Robert Ealy - I Had A Dream
TTITLE1=Eddie C. Campbell - Santa's Messin With The Kid
TTITLE2=Hubert Sumlin and Mighty Sam McClain - A Soul That's Between Abused
TTITLE3=The Holmes Brothers - Baby, What You Want Me To Do
TTITLE4=Byther Smith - Get Outta My Way
TTITLE5=Joe Guitar Hughes - My Baby Told Me
TTITLE6=W.C. Clark - I Want To Keep You
TTITLE7=Philip Walker - Beatrice, Beatrice
TTITLE8=Anson Funderburgh and Sam Myers - Missing Person
TTITLE9=Robert Ward - Black Bottom
TTITLE10=Legendary Blues Band - How Long
TTITLE11=Eddy Clearwater - Blues For Breakfast
TTITLE12=Preston Shannon - Nobody´s Fool
TTITLE13=Smokin' Joe Kubek Band - Can't See For Lookin'
EXTD=
EXTT0=
EXTT1=
EXTT2=
EXTT3=
EXTT4=
EXTT5=
EXTT6=
EXTT7=
EXTT8=
EXTT9=
EXTT10=
EXTT11=
EXTT12=
EXTT13=
PLAYORDER=
